<svg xmlns="http://www.w3.org/2000/svg" viewBox="0 0 520 640" preserveAspectRatio="xMidYMid meet" xmlns:c2pa="http://c2pa.org/manifest"><metadata><c2pa:manifest>AAAWgmp1bWIAAAAeanVtZGMycGEAEQAQgAAAqgA4m3EDYzJwYQAAABZcanVtYgAAAEdqdW1kYzJtYQARABCAAACqADibcQN1cm46YzJwYTphNTRiNjAxYS1iMGRkLTQ4MzItOTNjMC0wOWU2Y2Y1ZjBlZDcAAAADl2p1bWIAAAApanVtZGMyYXMAEQAQgAAAqgA4m3EDYzJwYS5hc3NlcnRpb25zAAAAALxqdW1iAAAARGp1bWRjYm9yABEAEIAAAKoAOJtxE2MycGEuaW5ncmVkaWVudC52MwAAAAAYYzJzaEyskxpMWuhtbwDPWrXAk0kAAABwY2JvcqNpZGM6Zm9ybWF0bWltYWdlL3N2Zyt4bWxqaW5zdGFuY2VJRHgseG1wOmlpZDoxNTBlMTk4NS04OWNiLTQ4OTItYjJlOS1kM2YxZDNkMjM5MTlscmVsYXRpb25zaGlwaHBhcmVudE9mAAAB4mp1bWIAAABBanVtZGNib3IAEQAQgAAAqgA4m3ETYzJwYS5hY3Rpb25zLnYyAAAAABhjMnNoy9eF4YULuaXhfxGMnn03zAAAAZljYm9yomdhY3Rpb25zgqJmYWN0aW9ua2MycGEub3BlbmVkanBhcmFtZXRlcnOha2luZ3JlZGllbnRzgaJjdXJseC1zZWxmI2p1bWJmPWMycGEuYXNzZXJ0aW9ucy9jMnBhLmluZ3JlZGllbnQudjNkaGFzaFggUCxI2b5p8bLAas3h7wdwbcYsn4AkvBuklHbaXtgsSvqkZmFjdGlvbngdY29tLmFudGhyb3BpYy5jbGF1ZGUucHJvdmlkZWRqcGFyYW1ldGVyc6F4H2NvbS5hbnRocm9waWMub3JpZ2luLWNvbmZpZGVuY2VndW5rbm93bmtkZXNjcmlwdGlvbnhmQ2xhdWRlIHByb3ZpZGVkIHRoaXMgZmlsZSBhdCB0aGUgcmVxdWVzdCBvZiBhIHVzZXIgYW5kIG1heSBoYXZlIGNyZWF0ZWQgb3IgbW9kaWZpZWQgdGhlIGZpbGUgY29udGVudHMubXNvZnR3YXJlQWdlbnShZG5hbWVmQ2xhdWRlcmFsbEFjdGlvbnNJbmNsdWRlZPUAAADIanVtYgAAAEBqdW1kY2JvcgARABCAAACqADibcRNjMnBhLmhhc2guZGF0YQAAAAAYYzJzaLnKDUyxjyD/m9m3nLaTj0wAAACAY2JvcqVjYWxnZnNoYTI1NmNwYWRNAAAAAAAAAAAAAAAAAGRoYXNoWCA5yg5Fppy0qhAl1/b8cWaKAz2xovyV/3FhVaL+PFhhwmRuYW1lbmp1bWJmIG1hbmlmZXN0amV4Y2x1c2lvbnOBomVzdGFydBihZmxlbmd0aBkeBAAAAj5qdW1iAAAAJ2p1bWRjMmNsABEAEIAAAKoAOJtxA2MycGEuY2xhaW0udjIAAAACD2Nib3KlY2FsZ2ZzaGEyNTZpc2lnbmF0dXJleE1zZWxmI2p1bWJmPS9jMnBhL3VybjpjMnBhOmE1NGI2MDFhLWIwZGQtNDgzMi05M2MwLTA5ZTZjZjVmMGVkNy9jMnBhLnNpZ25hdHVyZWppbnN0YW5jZUlEeCx4bXA6aWlkOjQ3NGQ5MDkyLWVkMmUtNDhhMC1hMDk3LWQxZjllMjdlYWU4ZXJjcmVhdGVkX2Fzc2VydGlvbnODomN1cmx4LXNlbGYjanVtYmY9YzJwYS5hc3NlcnRpb25zL2MycGEuaW5ncmVkaWVudC52M2RoYXNoWCBQLEjZvmnxssBqzeHvB3BtxiyfgCS8G6SUdtpe2CxK+qJjdXJseCpzZWxmI2p1bWJmPWMycGEuYXNzZXJ0aW9ucy9jMnBhLmFjdGlvbnMudjJkaGFzaFggfxZzVy5O4Ovcq1V9PxKUfw5vbFQA1HhlcuXJx+GYhJKiY3VybHgpc2VsZiNqdW1iZj1jMnBhLmFzc2VydGlvbnMvYzJwYS5oYXNoLmRhdGFkaGFzaFggdX26YUOJTl/74QDSa4BkzgixYnLaxwoDRAaBW85aDIB0Y2xhaW1fZ2VuZXJhdG9yX2luZm+jZG5hbWVvQW50aHJvcGljIEZpbGVzZ3ZlcnNpb25lMS4wLjBrc3BlY1ZlcnNpb25lMi40LjAAABA4anVtYgAAAChqdW1kYzJjcwARABCAAACqADibcQNjMnBhLnNpZ25hdHVyZQAAABAIY2JvctKEWQISogEmGCFZAgowggIGMIIBjaADAgECAhRA5aAK7sI50L64g/oGQgU9Z1UTADAKBggqhkjOPQQDAzBJMRcwFQYDVQQKEw5BbnRocm9waWMsIFBCQzEuMCwGA1UEAxMlQW50aHJvcGljIENvbnRlbnQgQ3JlZGVudGlhbHMgUm9vdCBDQTAeFw0yNjA4MDcxODQzNTZaFw0yODA4MDYxOTQzNTZaMEQxFzAVBgNVBAoTDkFudGhyb3BpYywgUEJDMSkwJwYDVQQDEyBBbnRocm9waWMgQ2xhdWRlIENvbnRlbnQgU2lnbmluZzBZMBMGByqGSM49AgEGCCqGSM49AwEHA0IABJh6CmvLUBgFFNU0vUKlOVtE6djd17L5SuwX0LemFisBM3dkd/3cyjxFA3Qo5S46fX0/ihY0VZ7mfb9KF703t5OjWDBWMA4GA1UdDwEB/wQEAwIHgDAVBgNVHSUEDjAMBgorBgEEAYPoXgIBMAwGA1UdEwEB/wQCMAAwHwYDVR0jBBgwFoAUzlHiBIFOZFsj+OPEz5o+nMHXXMIwCgYIKoZIzj0EAwMDZwAwZAIwMXMdFJ4BetLLVY7ORuE9noqbbAZOZn/aArXyTwFAZfKrPzxF2vPoJNf1+UCdg1XGAjBwX1zd9WGqYkqmL5SFqw1QySjr1zJfpJM9+1rdDwSPLMOPOjKuiXjoU/pUUeG9RwmhY3BhZFkNngAAAAAAAAAAAAAAAAAAAAAAAAAAAAAAAAAAAAAAAAAAAAAAAAAAAAAAAAAAAAAAAAAAAAAAAAAAAAAAAAAAAAAAAAAAAAAAAAAAAAAAAAAAAAAAAAAAAAAAAAAAAAAAAAAAAAAAAAAAAAAAAAAAAAAAAAAAAAAAAAAAAAAAAAAAAAAAAAAAAAAAAAAAAAAAAAAAAAAAAAAAAAAAAAAAAAAAAAAAAAAAAAAAAAAAAAAAAAAAAAAAAAAAAAAAAAAAAAAAAAAAAAAAAAAAAAAAAAAAAAAAAAAAAAAAAAAAAAAAAAAAAAAAAAAAAAAAAAAAAAAAAAAAAAAAAAAAAAAAAAAAAAAAAAAAAAAAAAAAAAAAAAAAAAAAAAAAAAAAAAAAAAAAAAAAAAAAAAAAAAAAAAAAAAAAAAAAAAAAAAAAAAAAAAAAAAAAAAAAAAAAAAAAAAAAAAAAAAAAAAAAAAAAAAAAAAAAAAAAAAAAAAAAAAAAAAAAAAAAAAAAAAAAAAAAAAAAAAAAAAAAAAAAAAAAAAAAAAAAAAAAAAAAAAAAAAAAAAAAAAAAAAAAAAAAAAAAAAAAAAAAAAAAAAAAAAAAAAAAAAAAAAAAAAAAAAAAAAAAAAAAAAAAAAAAAAAAAAAAAAAAAAAAAAAAAAAAAAAAAAAAAAAAAAAAAAAAAAAAAAAAAAAAAAAAAAAAAAAAAAAAAAAAAAAAAAAAAAAAAAAAAAAAAAAAAAAAAAAAAAAAAAAAAAAAAAAAAAAAAAAAAAAAAAAAAAAAAAAAAAAAAAAAAAAAAAAAAAAAAAAAAAAAAAAAAAAAAAAAAAAAAAAAAAAAAAAAAAAAAAAAAAAAAAAAAAAAAAAAAAAAAAAAAAAAAAAAAAAAAAAAAAAAAAAAAAAAAAAAAAAAAAAAAAAAAAAAAAAAAAAAAAAAAAAAAAAAAAAAAAAAAAAAAAAAAAAAAAAAAAAAAAAAAAAAAAAAAAAAAAAAAAAAAAAAAAAAAAAAAAAAAAAAAAAAAAAAAAAAAAAAAAAAAAAAAAAAAAAAAAAAAAAAAAAAAAAAAAAAAAAAAAAAAAAAAAAAAAAAAAAAAAAAAAAAAAAAAAAAAAAAAAAAAAAAAAAAAAAAAAAAAAAAAAAAAAAAAAAAAAAAAAAAAAAAAAAAAAAAAAAAAAAAAAAAAAAAAAAAAAAAAAAAAAAAAAAAAAAAAAAAAAAAAAAAAAAAAAAAAAAAAAAAAAAAAAAAAAAAAAAAAAAAAAAAAAAAAAAAAAAAAAAAAAAAAAAAAAAAAAAAAAAAAAAAAAAAAAAAAAAAAAAAAAAAAAAAAAAAAAAAAAAAAAAAAAAAAAAAAAAAAAAAAAAAAAAAAAAAAAAAAAAAAAAAAAAAAAAAAAAAAAAAAAAAAAAAAAAAAAAAAAAAAAAAAAAAAAAAAAAAAAAAAAAAAAAAAAAAAAAAAAAAAAAAAAAAAAAAAAAAAAAAAAAAAAAAAAAAAAAAAAAAAAAAAAAAAAAAAAAAAAAAAAAAAAAAAAAAAAAAAAAAAAAAAAAAAAAAAAAAAAAAAAAAAAAAAAAAAAAAAAAAAAAAAAAAAAAAAAAAAAAAAAAAAAAAAAAAAAAAAAAAAAAAAAAAAAAAAAAAAAAAAAAAAAAAAAAAAAAAAAAAAAAAAAAAAAAAAAAAAAAAAAAAAAAAAAAAAAAAAAAAAAAAAAAAAAAAAAAAAAAAAAAAAAAAAAAAAAAAAAAAAAAAAAAAAAAAAAAAAAAAAAAAAAAAAAAAAAAAAAAAAAAAAAAAAAAAAAAAAAAAAAAAAAAAAAAAAAAAAAAAAAAAAAAAAAAAAAAAAAAAAAAAAAAAAAAAAAAAAAAAAAAAAAAAAAAAAAAAAAAAAAAAAAAAAAAAAAAAAAAAAAAAAAAAAAAAAAAAAAAAAAAAAAAAAAAAAAAAAAAAAAAAAAAAAAAAAAAAAAAAAAAAAAAAAAAAAAAAAAAAAAAAAAAAAAAAAAAAAAAAAAAAAAAAAAAAAAAAAAAAAAAAAAAAAAAAAAAAAAAAAAAAAAAAAAAAAAAAAAAAAAAAAAAAAAAAAAAAAAAAAAAAAAAAAAAAAAAAAAAAAAAAAAAAAAAAAAAAAAAAAAAAAAAAAAAAAAAAAAAAAAAAAAAAAAAAAAAAAAAAAAAAAAAAAAAAAAAAAAAAAAAAAAAAAAAAAAAAAAAAAAAAAAAAAAAAAAAAAAAAAAAAAAAAAAAAAAAAAAAAAAAAAAAAAAAAAAAAAAAAAAAAAAAAAAAAAAAAAAAAAAAAAAAAAAAAAAAAAAAAAAAAAAAAAAAAAAAAAAAAAAAAAAAAAAAAAAAAAAAAAAAAAAAAAAAAAAAAAAAAAAAAAAAAAAAAAAAAAAAAAAAAAAAAAAAAAAAAAAAAAAAAAAAAAAAAAAAAAAAAAAAAAAAAAAAAAAAAAAAAAAAAAAAAAAAAAAAAAAAAAAAAAAAAAAAAAAAAAAAAAAAAAAAAAAAAAAAAAAAAAAAAAAAAAAAAAAAAAAAAAAAAAAAAAAAAAAAAAAAAAAAAAAAAAAAAAAAAAAAAAAAAAAAAAAAAAAAAAAAAAAAAAAAAAAAAAAAAAAAAAAAAAAAAAAAAAAAAAAAAAAAAAAAAAAAAAAAAAAAAAAAAAAAAAAAAAAAAAAAAAAAAAAAAAAAAAAAAAAAAAAAAAAAAAAAAAAAAAAAAAAAAAAAAAAAAAAAAAAAAAAAAAAAAAAAAAAAAAAAAAAAAAAAAAAAAAAAAAAAAAAAAAAAAAAAAAAAAAAAAAAAAAAAAAAAAAAAAAAAAAAAAAAAAAAAAAAAAAAAAAAAAAAAAAAAAAAAAAAAAAAAAAAAAAAAAAAAAAAAAAAAAAAAAAAAAAAAAAAAAAAAAAAAAAAAAAAAAAAAAAAAAAAAAAAAAAAAAAAAAAAAAAAAAAAAAAAAAAAAAAAAAAAAAAAAAAAAAAAAAAAAAAAAAAAAAAAAAAAAAAAAAAAAAAAAAAAAAAAAAAAAAAAAAAAAAAAAAAAAAAAAAAAAAAAAAAAAAAAAAAAAAAAAAAAAAAAAAAAAAAAAAAAAAAAAAAAAAAAAAAAAAAAAAAAAAAAAAAAAAAAAAAAAAAAAAAAAAAAAAAAAAAAAAAAAAAAAAAAAAAAAAAAAAAAAAAAAAAAAAAAAAAAAAAAAAAAAAAAAAAAAAAAAAAAAAAAAAAAAAAAAAAAAAAAAAAAAAAAAAAAAAAAAAAAAAAAAAAAAAAAAAAAAAAAAAAAAAAAAAAAAAAAAAAAAAAAAAAAAAAAAAAAAAAAAAAAAAAAAAAAAAAAAAAAAAAAAAAAAAAAAAAAAAAAAAAAAAAAAAAAAAAAAAAAAAAAAAAAAAAAAAAAAAAAAAAAAAAAAAAAAAAAAAAAAAAAAAAAAAAAAAAAAAAAAAAAAAAAAAAAAAAAAAAAAAAAAAAAAAAAAAAAAAAAAAAAAAAAAAAAAAAAAAAAAAAAAAAAAAAAAAAAAAAAAAAAAAAAAAAAAAAAAAAAAAAAAAAAAAAAAAAAAAAAAAAAAAAAAAAAAAAAAAAAAAAAAAAAAAAAAAAAAAAAAAAAAAAAAAAAAAAAAAAAAAAAAAAAAAAAAAAAAAAAAAAAAAAAAAAAAAAAAAAAAAAAAAAAAAAAAAAAAAAAAAAAAAAAAAAAAAAAAAAAAAAAAAAAAAAAAAAAAAAAAAAAAAAAAAAAAAAAAAAAAAAAAAAAAAAAAAAAAAAAAAAAAAAAAAAAAAAAAAAAAAAAAAAAAAAAAAAAAAAAAAAAAAAAAAAAAAAAAAAAAAAAAAAAAAAAAAAAAAAAAAAAAAAAAAAAAAAAAAAAAAAAAAAAAAAAAAAAAAAAAAAAAAAAAAAAAAAAAAAAAAAAAAAAAAAAAAAAAAAAAAAAAAAAAAAAAAAAAAAAAAAAAAAAAAAAAAAAAAAAAAAAAAAAAAAAAAAAAAAAAAAAAAAAAAAAAAAAAAAAAAAAAAAAAAAAAAAAAAAAAAAAAAAAAAAAAAAAAAAAAAAAAAAAAAAAAAAAAAAAAAAAAAAAAAAAAAAAAAAAAAAAAAAAAAAAAAAAAAAAAAAAAAAAAAAAAAAAAAAAAAAAAAAAAAAAAAAAAAAAAAAAAAAAAAAAAAAAAAAAAAAAAAAAAAAAAAAAAAAAAAAAAAAAAAAAAAAAAAAAAAAAAAAAAAAAAAAAAAAAAAAAAAAAAAAAAAAAAAAAAAAAAAAAAAAAAAAAAAAAAAAAAAAAAAAAAAAAAAAAAAAAAAAAAAAAAAAAAAAAAAAAAAAAAAAAAAAAAAAAAAAAAAAAAAAAAAAAAAAAAAAAAAAAAAAAAAAAAAAAAAAAAAAAAAAAAAAAAAAAAAAAAAAAAAAAAAAAAAAAAAAAAAAAAAAAAAAAAAAAAAAAAAAAAAAAAAAAAAAAAAAAAAAAAAAAAAAAAAAAAAAAAAAAAAAAAAAAAAAAAAAAAAAAAAAAAAAAAAAAAAAAAAAAAAAAAAAAAAAAAAAAAAAAAAAAAAAAAAAAAAAAAAAAAAAAAAAAAAAAAAAAAAAAAAAAAAAAAAAAAAAAAAAAAAAAAAAAAAAAAAAAAAAAAAAAAAAAAAAAAAAAAAAAAAAAAAAAAAAAAAAAAAAAAAAAAAAAAAAAAAAAAAAAAAAAAAAAAAAAAAAAAAAAAAAPZYQDy5Bw70G8Q6y0qv3PLaA/oecvUA/mmaBX5H36rMCznZ4RgjwOb8MhbgRKTn7ZgXqvjx5LRvxcBptAaU0hB1+fs=</c2pa:manifest></metadata>
        <rect width="520" height="640" fill="#A68CDE" />

        <!-- scattered decorations -->
        <g stroke="#7358C4" stroke-width="2" fill="none" stroke-linecap="round">
                    <path d="M206,46 l8,8 M214,46 l-8,8"/>
          <circle cx="330" cy="45" r="4.5"/>
          <path d="M346,66 l8,8 M354,66 l-8,8"/>
          <circle cx="380" cy="40" r="4.5"/>
          <path d="M193,90 h14"/>
          <path d="M296,106 l8,8 M304,106 l-8,8"/>
          <circle cx="190" cy="115" r="4.5"/>
          <path d="M258,120 h14"/>
          <path d="M371,101 l8,8 M379,101 l-8,8"/>
          <circle cx="345" cy="120" r="4.5"/>
          <path d="M403,55 h14"/>
          <path d="M466,56 l8,8 M474,56 l-8,8"/>
          <path d="M146,146 l8,8 M154,146 l-8,8"/>
          <circle cx="150" cy="130" r="4.5"/>
          <path d="M123,205 h14"/>
          <path d="M176,216 l8,8 M184,216 l-8,8"/>
          <circle cx="260" cy="225" r="4.5"/>
          <path d="M286,211 l8,8 M294,211 l-8,8"/>
          <path d="M233,240 h14"/>
          <circle cx="320" cy="220" r="4.5"/>
          <path d="M346,226 l8,8 M354,226 l-8,8"/>
          <circle cx="440" cy="245" r="4.5"/>
          <path d="M463,165 h14"/>
          <path d="M481,136 l8,8 M489,136 l-8,8"/>
          <circle cx="480" cy="200" r="4.5"/>
          <path d="M476,236 l8,8 M484,236 l-8,8"/>
          <path d="M38,240 h14"/>
          <path d="M56,121 l8,8 M64,121 l-8,8"/>
          <circle cx="185" cy="260" r="4.5"/>
          <path d="M216,266 l8,8 M224,266 l-8,8"/>
          <circle cx="250" cy="275" r="4.5"/>
          <path d="M178,290 h14"/>
          <path d="M286,246 l8,8 M294,246 l-8,8"/>
          <circle cx="330" cy="270" r="4.5"/>
          <path d="M356,256 l8,8 M364,256 l-8,8"/>
          <path d="M453,280 h14"/>
          <circle cx="420" cy="270" r="4.5"/>
          <path d="M471,301 l8,8 M479,301 l-8,8"/>
          <path d="M53,310 h14"/>
          <path d="M71,276 l8,8 M79,276 l-8,8"/>
          <circle cx="490" cy="110" r="4.5"/>
          <path d="M223,25 h14"/>
        </g>

        <!-- line icons -->
        <g stroke="#7358C4" stroke-width="2.2" fill="none" stroke-linecap="round" stroke-linejoin="round">
          <!-- info bubble -->
          <path d="M100,55 h70 a6,6 0 0 1 6,6 v45 a6,6 0 0 1 -6,6 h-45 l-15,15 v-15 h-10 a6,6 0 0 1 -6,-6 v-45 a6,6 0 0 1 6,-6 z" />
          <circle cx="135" cy="72" r="2" fill="#7358C4" />
          <path d="M135,80 v18" />

          <!-- headset -->
          <path d="M238,68 a26,26 0 0 1 52,0" />
          <rect x="230" y="64" width="12" height="20" rx="5" />
          <rect x="286" y="64" width="12" height="20" rx="5" />
          <path d="M292,84 q0,14 -18,14 h-6" />

          <!-- chat bubble with dots -->
          <circle cx="440" cy="100" r="26" />
          <path d="M456,120 l12,16 l-18,-8" />
          <circle cx="430" cy="100" r="3" /><circle cx="440" cy="100" r="3" /><circle cx="450" cy="100" r="3" />

          <!-- globe 24 -->
          <circle cx="70" cy="185" r="32" />
          <ellipse cx="70" cy="185" rx="14" ry="32" />
          <path d="M38,185 h64 M44,168 h52 M44,202 h52" />
          <circle cx="95" cy="205" r="16" fill="#A68CDE" />
          <text x="95" y="210" font-size="13" text-anchor="middle" fill="#7358C4" stroke="none" font-family="Arial">24</text>

          <!-- phone with person -->
          <rect x="200" y="138" width="44" height="66" rx="6" />
          <circle cx="222" cy="162" r="8" />
          <path d="M209,188 q13,-14 26,0" />
          <path d="M215,198 h14" />

          <!-- laptop with phone -->
          <rect x="300" y="138" width="68" height="44" rx="4" />
          <path d="M292,188 h84 l-6,8 h-72 z" />
          <path d="M328,152 q-4,8 4,14 l4,-3 l-2,-4 l-3,1 q-2,-3 -1,-5 l3,-1 l-1,-4 z" />

          <!-- question mark -->
          <path d="M400,188 q0,-10 9,-10 q9,0 9,9 q0,7 -9,10 v6" />
          <circle cx="409" cy="210" r="1.5" fill="#7358C4" />

          <!-- hand with coin -->
          <path d="M380,232 h24 q10,0 16,-6 l20,-12 q8,-3 10,4 l-24,20 q-6,5 -16,5 h-30" />
          <circle cx="440" cy="190" r="9" />

          <!-- envelope -->
          <rect x="105" y="265" width="60" height="44" rx="3" />
          <path d="M105,268 l30,24 l30,-24" />

          <!-- three rings -->
          <circle cx="385" cy="320" r="11" /><circle cx="385" cy="320" r="5" />
          <circle cx="412" cy="320" r="7" /><circle cx="440" cy="320" r="7" />
        </g>

        <!-- rings in white -->
        <g stroke="#fff" stroke-width="2" fill="none">
          <circle cx="385" cy="320" r="11" />
          <circle cx="412" cy="320" r="7" />
          <circle cx="440" cy="320" r="7" />
        </g>

        <!-- check pill -->
        <rect x="68" y="340" width="150" height="72" rx="36" fill="none" stroke="#fff" stroke-width="2" />
        <circle cx="106" cy="376" r="30" fill="#fff" />
        <path d="M92,377 l10,10 l18,-20" stroke="#6441A5" stroke-width="3" fill="none" stroke-linecap="round" stroke-linejoin="round" />

        <!-- monitor -->
        <rect x="125" y="350" width="320" height="205" rx="20" fill="#DCCFF6" />
        <rect x="132" y="352" width="306" height="190" rx="16" fill="#111" />
        <path d="M268,555 h36 l8,34 h-52 z" fill="#DCCFF6" />
        <rect x="225" y="587" width="122" height="7" rx="3.5" fill="#DCCFF6" />
        <path d="M70,598 h380" stroke="#fff" stroke-width="2" />

        <!-- woman: hair (back) -->
        <path d="M232,340 C215,270 250,230 295,232 C345,236 360,285 346,345 C358,372 345,398 318,400 L250,400 C228,392 222,368 232,340 Z" fill="#111" />
        <!-- neck -->
        <rect x="272" y="345" width="28" height="50" fill="#fff" />
        <!-- shirt -->
        <path d="M168,542 C172,440 212,398 286,392 C360,398 398,440 402,542 Z" fill="#5B3FA0" />
        <path d="M268,392 q18,22 36,0" fill="#fff" />
        <!-- face -->
        <ellipse cx="286" cy="315" rx="32" ry="42" fill="#fff" />
        <!-- bangs -->
        <path d="M255,296 C258,262 292,254 318,272 C298,270 282,276 270,290 C264,298 258,304 255,296 Z" fill="#111" />
        <!-- headset -->
        <path d="M252,300 C252,258 320,258 320,300" stroke="#5B3FA0" stroke-width="4" fill="none" />
        <circle cx="320" cy="310" r="8" fill="#5B3FA0" />
        <path d="M320,318 q-4,20 -28,22" stroke="#5B3FA0" stroke-width="3" fill="none" stroke-linecap="round" />
        <circle cx="290" cy="340" r="3.5" fill="#5B3FA0" />

        <!-- raised arm with OK hand -->
        <path d="M188,500 C186,450 192,410 200,388 L222,392 C220,420 220,460 222,500 Z" fill="#fff" />
        <path d="M184,500 C184,470 188,450 194,436 L226,440 C226,460 226,480 228,500 Z" fill="#5B3FA0" />
        <ellipse cx="212" cy="378" rx="16" ry="18" fill="#fff" />
        <g stroke="#fff" stroke-width="8" stroke-linecap="round">
          <path d="M202,370 l-8,-36" />
          <path d="M212,366 l-2,-40" />
          <path d="M222,368 l6,-34" />
        </g>
        <circle cx="228" cy="378" r="9" fill="none" stroke="#fff" stroke-width="6" />
        <circle cx="228" cy="378" r="4" fill="#A68CDE" />

        <!-- waves -->
        <g stroke="#fff" stroke-width="2" fill="none" stroke-linecap="round">
          <path d="M60,500 q10,-10 20,0 t20,0 t20,0 t20,0" />
          <path d="M400,422 q12,-12 24,0 t24,0 t24,0 t24,0" />
          <path d="M340,578 q8,-8 16,0 t16,0 t16,0" />
        </g>
      </svg>
